<svg xmlns="http://www.w3.org/2000/svg" xmlns:xlink="http://www.w3.org/1999/xlink"><defs><style>
    .sprite-symbol-usage {display: none;}
    .sprite-symbol-usage:target {display: inline;}
  </style><symbol viewBox="0 0 60 60" id="announceme"><g fill="none" stroke-miterlimit="10"><path d="M45.063 33.119v-7.684a15.143 15.143 0 0 0-9.533-14.062 19.764 19.764 0 0 0-5.821-1.143 17.124 17.124 0 0 0-5.558 1.143 14.91 14.91 0 0 0-9.533 14.072v7.674l-3.928 8.042a1.864 1.864 0 0 0 1.673 2.684h11.5v.185a5.973 5.973 0 0 0 11.947 0v-.182h11.508a1.864 1.864 0 0 0 1.673-2.684Z" /><path d="M29.836 48a3.978 3.978 0 0 0 3.973-3.973v-2.182H47.1l-4.036-8.264v-8.145c0-2.64-.783-5.188-2.264-7.373a13.094 13.094 0 0 0-5.987-4.823c-.786-.29-3.167-1.01-5.103-1.01-2.3 0-4.784.987-4.806.996l-.03.012a12.852 12.852 0 0 0-6.034 4.801 12.852 12.852 0 0 0-2.221 7.383V33.581l-4.036 8.264h13.28v2.182A3.978 3.978 0 0 0 29.836 48m0 2a5.973 5.973 0 0 1-5.974-5.973v-.182h-11.5a1.864 1.864 0 0 1-1.672-2.684l3.928-8.042v-7.674a14.91 14.91 0 0 1 9.533-14.072s2.817-1.143 5.558-1.143c2.741 0 5.82 1.143 5.82 1.143a15.143 15.143 0 0 1 9.534 14.062v7.684l3.928 8.042a1.864 1.864 0 0 1-1.673 2.684H35.81v.182c0 3.299-2.674 5.973-5.973 5.973Z" fill="#46b843" /></g><path data-name="Line Copy" d="M15.357 43.268h28.572" fill="none" stroke="#46b843" stroke-linecap="square" stroke-miterlimit="10" stroke-width="2" /></symbol><symbol viewBox="0 0 41.85 41" id="announceme-2"><path d="M6.22 41a6.22 6.22 0 1 1 6.21-6.22A6.23 6.23 0 0 1 6.22 41Zm0-10.43a4.22 4.22 0 1 0 4.21 4.21 4.22 4.22 0 0 0-4.21-4.21ZM39.81 38a37.87 37.87 0 0 0-11.09-24.87A37.88 37.88 0 0 0 3.87 2v3.67A34.51 34.51 0 0 1 36.15 38h3.66m-13.63 0a24.4 24.4 0 0 0-7.08-15.26 24.27 24.27 0 0 0-15.23-7.08v3.66A20.74 20.74 0 0 1 22.5 38h3.68m14.44 2h-5.16a1.31 1.31 0 0 1-1.28-1.26 32.4 32.4 0 0 0-31-31.1 1.3 1.3 0 0 1-1.31-1.27V1.23A1.23 1.23 0 0 1 3.13 0a39.82 39.82 0 0 1 27 11.72 39.89 39.89 0 0 1 11.72 27A1.23 1.23 0 0 1 40.62 40ZM27 40h-5.16a1.33 1.33 0 0 1-1.29-1.26 18.6 18.6 0 0 0-5.45-12 18.6 18.6 0 0 0-12-5.46A1.33 1.33 0 0 1 1.87 20v-5.17a1.22 1.22 0 0 1 1.26-1.22 26.47 26.47 0 0 1 25.1 25.13A1.22 1.22 0 0 1 27 40Z" fill="#46b843" /></symbol><symbol viewBox="0 0 16.727 16" id="comment"><g fill="none" stroke-miterlimit="10"><path d="M13.243 2.667H3.488a.719.719 0 0 0-.7.713v7.319a.654.654 0 0 0 .7.635h.7v1.584c0 .376.282.439.629.277l3.742-1.861h4.684a.654.654 0 0 0 .7-.635V3.38a.719.719 0 0 0-.7-.713Z" /><path d="M4.288 4.167v5.667h1.394v1.253l2.525-1.253h4.233V4.167H4.288m-.803-1.5h9.758c.383 0 .697.339.697.713V10.7c0 .375-.314.635-.697.635H8.559l-3.748 1.86c-.347.163-.63.1-.63-.276v-1.584h-.696c-.383 0-.697-.26-.697-.635V3.38c0-.374.314-.713.697-.713Z" fill="#889099" /></g></symbol><symbol viewBox="0 0 20.414 20.414" id="search"><g transform="translate(1 1)" fill="none" stroke="#22252e" stroke-linecap="round" stroke-linejoin="round" stroke-miterlimit="10" stroke-width="2"><circle cx="7.5" cy="7.5" r="7.5" /><path d="m18 18-5.2-5.2" /></g></symbol></defs><use id="announceme-usage" xlink:href="#announceme" class="sprite-symbol-usage" /><use id="announceme-2-usage" xlink:href="#announceme-2" class="sprite-symbol-usage" /><use id="comment-usage" xlink:href="#comment" class="sprite-symbol-usage" /><use id="search-usage" xlink:href="#search" class="sprite-symbol-usage" /></svg>